<svg width="247" height="31" viewBox="0 0 247 31" fill="none" xmlns="http://www.w3.org/2000/svg">
<path d="M0.456055 15.5781C0.456055 19.9964 4.03778 23.5781 8.45605 23.5781C12.8743 23.5781 16.4561 19.9964 16.4561 15.5781C16.4561 11.1598 12.8743 7.57812 8.45605 7.57812C4.03778 7.57812 0.456055 11.1598 0.456055 15.5781ZM137.241 17.0781C138.069 17.0781 138.741 16.4066 138.741 15.5781C138.741 14.7497 138.069 14.0781 137.241 14.0781V17.0781ZM8.45605 17.0781H137.241V14.0781H8.45605V17.0781Z" fill="white"/>
<path d="M135.741 16.9482V18.4482H138.741V16.9482H135.741ZM137.85 3.24766L137.106 4.55002L137.85 3.24766ZM123.845 7.96673L125.17 8.66856L123.845 7.96673ZM134.501 19.6883L133.924 21.0729L134.501 19.6883ZM230.625 22.4284C230.625 26.8467 234.206 30.4284 238.625 30.4284C243.043 30.4284 246.625 26.8467 246.625 22.4284C246.625 18.0101 243.043 14.4284 238.625 14.4284C234.206 14.4284 230.625 18.0101 230.625 22.4284ZM138.741 16.9482C138.741 16.5423 138.926 15.7021 139.27 14.3768C139.587 13.1537 139.999 11.6489 140.3 10.1679C140.597 8.70042 140.816 7.11799 140.694 5.72167C140.572 4.33899 140.075 2.79152 138.594 1.94529L137.106 4.55002C137.337 4.68223 137.62 5.01585 137.705 5.98459C137.789 6.9397 137.642 8.17905 137.359 9.57136C137.08 10.9503 136.698 12.3433 136.366 13.6238C136.06 14.8021 135.741 16.0712 135.741 16.9482H138.741ZM138.594 1.94529C135.94 0.42864 132.463 0.726279 129.564 1.76953C126.653 2.81703 123.83 4.78954 122.519 7.2649L125.17 8.66856C126.009 7.08379 128.08 5.49181 130.58 4.59234C133.091 3.68862 135.542 3.65679 137.106 4.55002L138.594 1.94529ZM122.519 7.2649C121.471 9.24438 121.537 11.1653 122.33 12.8623C123.084 14.4744 124.451 15.8037 125.881 16.8659C128.742 18.9918 132.412 20.4431 133.924 21.0729L135.078 18.3037C133.473 17.6352 130.177 16.3207 127.67 14.4579C126.415 13.5257 125.498 12.5549 125.048 11.5918C124.637 10.7135 124.58 9.78404 125.17 8.66856L122.519 7.2649ZM133.924 21.0729C142.29 24.5589 150.462 23.9284 159.162 23.9284V20.9284C150.147 20.9284 142.747 21.4994 135.078 18.3037L133.924 21.0729ZM159.162 23.9284C159.213 23.9284 159.265 23.9284 159.317 23.9284C159.369 23.9284 159.42 23.9284 159.472 23.9284C159.524 23.9284 159.576 23.9284 159.627 23.9284C159.679 23.9284 159.731 23.9284 159.782 23.9284C159.834 23.9284 159.886 23.9284 159.938 23.9284C159.989 23.9284 160.041 23.9284 160.093 23.9284C160.145 23.9284 160.196 23.9284 160.248 23.9284C160.3 23.9284 160.352 23.9284 160.403 23.9284C160.455 23.9284 160.507 23.9284 160.558 23.9284C160.61 23.9284 160.662 23.9284 160.714 23.9284C160.765 23.9284 160.817 23.9284 160.869 23.9284C160.921 23.9284 160.972 23.9284 161.024 23.9284C161.076 23.9284 161.128 23.9284 161.179 23.9284C161.231 23.9284 161.283 23.9284 161.334 23.9284C161.386 23.9284 161.438 23.9284 161.49 23.9284C161.541 23.9284 161.593 23.9284 161.645 23.9284C161.697 23.9284 161.748 23.9284 161.8 23.9284C161.852 23.9284 161.904 23.9284 161.955 23.9284C162.007 23.9284 162.059 23.9284 162.111 23.9284C162.162 23.9284 162.214 23.9284 162.266 23.9284C162.317 23.9284 162.369 23.9284 162.421 23.9284C162.473 23.9284 162.524 23.9284 162.576 23.9284C162.628 23.9284 162.68 23.9284 162.731 23.9284C162.783 23.9284 162.835 23.9284 162.887 23.9284C162.938 23.9284 162.99 23.9284 163.042 23.9284C163.093 23.9284 163.145 23.9284 163.197 23.9284C163.249 23.9284 163.3 23.9284 163.352 23.9284C163.404 23.9284 163.456 23.9284 163.507 23.9284C163.559 23.9284 163.611 23.9284 163.663 23.9284C163.714 23.9284 163.766 23.9284 163.818 23.9284C163.869 23.9284 163.921 23.9284 163.973 23.9284C164.025 23.9284 164.076 23.9284 164.128 23.9284C164.18 23.9284 164.232 23.9284 164.283 23.9284C164.335 23.9284 164.387 23.9284 164.439 23.9284C164.49 23.9284 164.542 23.9284 164.594 23.9284C164.645 23.9284 164.697 23.9284 164.749 23.9284C164.801 23.9284 164.852 23.9284 164.904 23.9284C164.956 23.9284 165.008 23.9284 165.059 23.9284C165.111 23.9284 165.163 23.9284 165.215 23.9284C165.266 23.9284 165.318 23.9284 165.37 23.9284C165.421 23.9284 165.473 23.9284 165.525 23.9284C165.577 23.9284 165.628 23.9284 165.68 23.9284C165.732 23.9284 165.784 23.9284 165.835 23.9284C165.887 23.9284 165.939 23.9284 165.991 23.9284C166.042 23.9284 166.094 23.9284 166.146 23.9284C166.197 23.9284 166.249 23.9284 166.301 23.9284C166.353 23.9284 166.404 23.9284 166.456 23.9284C166.508 23.9284 166.56 23.9284 166.611 23.9284C166.663 23.9284 166.715 23.9284 166.767 23.9284C166.818 23.9284 166.87 23.9284 166.922 23.9284C166.973 23.9284 167.025 23.9284 167.077 23.9284C167.129 23.9284 167.18 23.9284 167.232 23.9284C167.284 23.9284 167.336 23.9284 167.387 23.9284C167.439 23.9284 167.491 23.9284 167.543 23.9284C167.594 23.9284 167.646 23.9284 167.698 23.9284C167.749 23.9284 167.801 23.9284 167.853 23.9284C167.905 23.9284 167.956 23.9284 168.008 23.9284C168.06 23.9284 168.112 23.9284 168.163 23.9284C168.215 23.9284 168.267 23.9284 168.319 23.9284C168.37 23.9284 168.422 23.9284 168.474 23.9284C168.525 23.9284 168.577 23.9284 168.629 23.9284C168.681 23.9284 168.732 23.9284 168.784 23.9284C168.836 23.9284 168.888 23.9284 168.939 23.9284C168.991 23.9284 169.043 23.9284 169.095 23.9284C169.146 23.9284 169.198 23.9284 169.25 23.9284C169.301 23.9284 169.353 23.9284 169.405 23.9284C169.457 23.9284 169.508 23.9284 169.56 23.9284C169.612 23.9284 169.664 23.9284 169.715 23.9284C169.767 23.9284 169.819 23.9284 169.871 23.9284C169.922 23.9284 169.974 23.9284 170.026 23.9284C170.077 23.9284 170.129 23.9284 170.181 23.9284C170.233 23.9284 170.284 23.9284 170.336 23.9284C170.388 23.9284 170.44 23.9284 170.491 23.9284C170.543 23.9284 170.595 23.9284 170.647 23.9284C170.698 23.9284 170.75 23.9284 170.802 23.9284C170.854 23.9284 170.905 23.9284 170.957 23.9284C171.009 23.9284 171.06 23.9284 171.112 23.9284C171.164 23.9284 171.216 23.9284 171.267 23.9284C171.319 23.9284 171.371 23.9284 171.423 23.9284C171.474 23.9284 171.526 23.9284 171.578 23.9284C171.63 23.9284 171.681 23.9284 171.733 23.9284C171.785 23.9284 171.836 23.9284 171.888 23.9284C171.94 23.9284 171.992 23.9284 172.043 23.9284C172.095 23.9284 172.147 23.9284 172.199 23.9284C172.25 23.9284 172.302 23.9284 172.354 23.9284C172.406 23.9284 172.457 23.9284 172.509 23.9284C172.561 23.9284 172.612 23.9284 172.664 23.9284C172.716 23.9284 172.768 23.9284 172.819 23.9284C172.871 23.9284 172.923 23.9284 172.975 23.9284C173.026 23.9284 173.078 23.9284 173.13 23.9284C173.182 23.9284 173.233 23.9284 173.285 23.9284C173.337 23.9284 173.388 23.9284 173.44 23.9284C173.492 23.9284 173.544 23.9284 173.595 23.9284C173.647 23.9284 173.699 23.9284 173.751 23.9284C173.802 23.9284 173.854 23.9284 173.906 23.9284C173.958 23.9284 174.009 23.9284 174.061 23.9284C174.113 23.9284 174.164 23.9284 174.216 23.9284C174.268 23.9284 174.32 23.9284 174.371 23.9284C174.423 23.9284 174.475 23.9284 174.527 23.9284C174.578 23.9284 174.63 23.9284 174.682 23.9284C174.734 23.9284 174.785 23.9284 174.837 23.9284C174.889 23.9284 174.94 23.9284 174.992 23.9284C175.044 23.9284 175.096 23.9284 175.147 23.9284C175.199 23.9284 175.251 23.9284 175.303 23.9284C175.354 23.9284 175.406 23.9284 175.458 23.9284C175.51 23.9284 175.561 23.9284 175.613 23.9284C175.665 23.9284 175.716 23.9284 175.768 23.9284C175.82 23.9284 175.872 23.9284 175.923 23.9284C175.975 23.9284 176.027 23.9284 176.079 23.9284C176.13 23.9284 176.182 23.9284 176.234 23.9284C176.286 23.9284 176.337 23.9284 176.389 23.9284C176.441 23.9284 176.492 23.9284 176.544 23.9284C176.596 23.9284 176.648 23.9284 176.699 23.9284C176.751 23.9284 176.803 23.9284 176.855 23.9284C176.906 23.9284 176.958 23.9284 177.01 23.9284C177.062 23.9284 177.113 23.9284 177.165 23.9284C177.217 23.9284 177.268 23.9284 177.32 23.9284C177.372 23.9284 177.424 23.9284 177.475 23.9284C177.527 23.9284 177.579 23.9284 177.631 23.9284C177.682 23.9284 177.734 23.9284 177.786 23.9284C177.838 23.9284 177.889 23.9284 177.941 23.9284C177.993 23.9284 178.044 23.9284 178.096 23.9284C178.148 23.9284 178.2 23.9284 178.251 23.9284C178.303 23.9284 178.355 23.9284 178.407 23.9284C178.458 23.9284 178.51 23.9284 178.562 23.9284C178.614 23.9284 178.665 23.9284 178.717 23.9284C178.769 23.9284 178.821 23.9284 178.872 23.9284C178.924 23.9284 178.976 23.9284 179.027 23.9284C179.079 23.9284 179.131 23.9284 179.183 23.9284C179.234 23.9284 179.286 23.9284 179.338 23.9284C179.39 23.9284 179.441 23.9284 179.493 23.9284C179.545 23.9284 179.597 23.9284 179.648 23.9284C179.7 23.9284 179.752 23.9284 179.803 23.9284C179.855 23.9284 179.907 23.9284 179.959 23.9284C180.01 23.9284 180.062 23.9284 180.114 23.9284C180.166 23.9284 180.217 23.9284 180.269 23.9284C180.321 23.9284 180.373 23.9284 180.424 23.9284C180.476 23.9284 180.528 23.9284 180.579 23.9284C180.631 23.9284 180.683 23.9284 180.735 23.9284C180.786 23.9284 180.838 23.9284 180.89 23.9284C180.942 23.9284 180.993 23.9284 181.045 23.9284C181.097 23.9284 181.149 23.9284 181.2 23.9284C181.252 23.9284 181.304 23.9284 181.355 23.9284C181.407 23.9284 181.459 23.9284 181.511 23.9284C181.562 23.9284 181.614 23.9284 181.666 23.9284C181.718 23.9284 181.769 23.9284 181.821 23.9284C181.873 23.9284 181.925 23.9284 181.976 23.9284C182.028 23.9284 182.08 23.9284 182.131 23.9284C182.183 23.9284 182.235 23.9284 182.287 23.9284C182.338 23.9284 182.39 23.9284 182.442 23.9284C182.494 23.9284 182.545 23.9284 182.597 23.9284C182.649 23.9284 182.701 23.9284 182.752 23.9284C182.804 23.9284 182.856 23.9284 182.907 23.9284C182.959 23.9284 183.011 23.9284 183.063 23.9284C183.114 23.9284 183.166 23.9284 183.218 23.9284C183.27 23.9284 183.321 23.9284 183.373 23.9284C183.425 23.9284 183.477 23.9284 183.528 23.9284C183.58 23.9284 183.632 23.9284 183.683 23.9284C183.735 23.9284 183.787 23.9284 183.839 23.9284C183.89 23.9284 183.942 23.9284 183.994 23.9284C184.046 23.9284 184.097 23.9284 184.149 23.9284C184.201 23.9284 184.253 23.9284 184.304 23.9284C184.356 23.9284 184.408 23.9284 184.459 23.9284C184.511 23.9284 184.563 23.9284 184.615 23.9284C184.666 23.9284 184.718 23.9284 184.77 23.9284C184.822 23.9284 184.873 23.9284 184.925 23.9284C184.977 23.9284 185.029 23.9284 185.08 23.9284C185.132 23.9284 185.184 23.9284 185.235 23.9284C185.287 23.9284 185.339 23.9284 185.391 23.9284C185.442 23.9284 185.494 23.9284 185.546 23.9284C185.598 23.9284 185.649 23.9284 185.701 23.9284C185.753 23.9284 185.805 23.9284 185.856 23.9284C185.908 23.9284 185.96 23.9284 186.011 23.9284C186.063 23.9284 186.115 23.9284 186.167 23.9284C186.218 23.9284 186.27 23.9284 186.322 23.9284C186.374 23.9284 186.425 23.9284 186.477 23.9284C186.529 23.9284 186.581 23.9284 186.632 23.9284C186.684 23.9284 186.736 23.9284 186.788 23.9284C186.839 23.9284 186.891 23.9284 186.943 23.9284C186.994 23.9284 187.046 23.9284 187.098 23.9284C187.15 23.9284 187.201 23.9284 187.253 23.9284C187.305 23.9284 187.357 23.9284 187.408 23.9284C187.46 23.9284 187.512 23.9284 187.564 23.9284C187.615 23.9284 187.667 23.9284 187.719 23.9284C187.77 23.9284 187.822 23.9284 187.874 23.9284C187.926 23.9284 187.977 23.9284 188.029 23.9284C188.081 23.9284 188.133 23.9284 188.184 23.9284C188.236 23.9284 188.288 23.9284 188.34 23.9284C188.391 23.9284 188.443 23.9284 188.495 23.9284C188.546 23.9284 188.598 23.9284 188.65 23.9284C188.702 23.9284 188.753 23.9284 188.805 23.9284C188.857 23.9284 188.909 23.9284 188.96 23.9284C189.012 23.9284 189.064 23.9284 189.116 23.9284C189.167 23.9284 189.219 23.9284 189.271 23.9284C189.322 23.9284 189.374 23.9284 189.426 23.9284C189.478 23.9284 189.529 23.9284 189.581 23.9284C189.633 23.9284 189.685 23.9284 189.736 23.9284C189.788 23.9284 189.84 23.9284 189.892 23.9284C189.943 23.9284 189.995 23.9284 190.047 23.9284C190.098 23.9284 190.15 23.9284 190.202 23.9284C190.254 23.9284 190.305 23.9284 190.357 23.9284C190.409 23.9284 190.461 23.9284 190.512 23.9284C190.564 23.9284 190.616 23.9284 190.668 23.9284C190.719 23.9284 190.771 23.9284 190.823 23.9284C190.874 23.9284 190.926 23.9284 190.978 23.9284C191.03 23.9284 191.081 23.9284 191.133 23.9284C191.185 23.9284 191.237 23.9284 191.288 23.9284C191.34 23.9284 191.392 23.9284 191.444 23.9284C191.495 23.9284 191.547 23.9284 191.599 23.9284C191.65 23.9284 191.702 23.9284 191.754 23.9284C191.806 23.9284 191.857 23.9284 191.909 23.9284C191.961 23.9284 192.013 23.9284 192.064 23.9284C192.116 23.9284 192.168 23.9284 192.22 23.9284C192.271 23.9284 192.323 23.9284 192.375 23.9284C192.426 23.9284 192.478 23.9284 192.53 23.9284C192.582 23.9284 192.633 23.9284 192.685 23.9284C192.737 23.9284 192.789 23.9284 192.84 23.9284C192.892 23.9284 192.944 23.9284 192.996 23.9284C193.047 23.9284 193.099 23.9284 193.151 23.9284C193.202 23.9284 193.254 23.9284 193.306 23.9284C193.358 23.9284 193.409 23.9284 193.461 23.9284C193.513 23.9284 193.565 23.9284 193.616 23.9284C193.668 23.9284 193.72 23.9284 193.772 23.9284C193.823 23.9284 193.875 23.9284 193.927 23.9284C193.978 23.9284 194.03 23.9284 194.082 23.9284C194.134 23.9284 194.185 23.9284 194.237 23.9284C194.289 23.9284 194.341 23.9284 194.392 23.9284C194.444 23.9284 194.496 23.9284 194.548 23.9284C194.599 23.9284 194.651 23.9284 194.703 23.9284C194.755 23.9284 194.806 23.9284 194.858 23.9284C194.91 23.9284 194.961 23.9284 195.013 23.9284C195.065 23.9284 195.117 23.9284 195.168 23.9284C195.22 23.9284 195.272 23.9284 195.324 23.9284C195.375 23.9284 195.427 23.9284 195.479 23.9284C195.531 23.9284 195.582 23.9284 195.634 23.9284C195.686 23.9284 195.737 23.9284 195.789 23.9284C195.841 23.9284 195.893 23.9284 195.944 23.9284C195.996 23.9284 196.048 23.9284 196.1 23.9284C196.151 23.9284 196.203 23.9284 196.255 23.9284C196.307 23.9284 196.358 23.9284 196.41 23.9284C196.462 23.9284 196.513 23.9284 196.565 23.9284C196.617 23.9284 196.669 23.9284 196.72 23.9284C196.772 23.9284 196.824 23.9284 196.876 23.9284C196.927 23.9284 196.979 23.9284 197.031 23.9284C197.083 23.9284 197.134 23.9284 197.186 23.9284C197.238 23.9284 197.289 23.9284 197.341 23.9284C197.393 23.9284 197.445 23.9284 197.496 23.9284C197.548 23.9284 197.6 23.9284 197.652 23.9284C197.703 23.9284 197.755 23.9284 197.807 23.9284C197.859 23.9284 197.91 23.9284 197.962 23.9284C198.014 23.9284 198.065 23.9284 198.117 23.9284C198.169 23.9284 198.221 23.9284 198.272 23.9284C198.324 23.9284 198.376 23.9284 198.428 23.9284C198.479 23.9284 198.531 23.9284 198.583 23.9284C198.635 23.9284 198.686 23.9284 198.738 23.9284C198.79 23.9284 198.841 23.9284 198.893 23.9284C198.945 23.9284 198.997 23.9284 199.048 23.9284C199.1 23.9284 199.152 23.9284 199.204 23.9284C199.255 23.9284 199.307 23.9284 199.359 23.9284C199.411 23.9284 199.462 23.9284 199.514 23.9284C199.566 23.9284 199.617 23.9284 199.669 23.9284C199.721 23.9284 199.773 23.9284 199.824 23.9284C199.876 23.9284 199.928 23.9284 199.98 23.9284C200.031 23.9284 200.083 23.9284 200.135 23.9284C200.187 23.9284 200.238 23.9284 200.29 23.9284C200.342 23.9284 200.393 23.9284 200.445 23.9284C200.497 23.9284 200.549 23.9284 200.6 23.9284C200.652 23.9284 200.704 23.9284 200.756 23.9284C200.807 23.9284 200.859 23.9284 200.911 23.9284C200.963 23.9284 201.014 23.9284 201.066 23.9284C201.118 23.9284 201.169 23.9284 201.221 23.9284C201.273 23.9284 201.325 23.9284 201.376 23.9284C201.428 23.9284 201.48 23.9284 201.532 23.9284C201.583 23.9284 201.635 23.9284 201.687 23.9284C201.739 23.9284 201.79 23.9284 201.842 23.9284C201.894 23.9284 201.945 23.9284 201.997 23.9284C202.049 23.9284 202.101 23.9284 202.152 23.9284C202.204 23.9284 202.256 23.9284 202.308 23.9284C202.359 23.9284 202.411 23.9284 202.463 23.9284C202.515 23.9284 202.566 23.9284 202.618 23.9284C202.67 23.9284 202.721 23.9284 202.773 23.9284C202.825 23.9284 202.877 23.9284 202.928 23.9284C202.98 23.9284 203.032 23.9284 203.084 23.9284C203.135 23.9284 203.187 23.9284 203.239 23.9284C203.291 23.9284 203.342 23.9284 203.394 23.9284C203.446 23.9284 203.498 23.9284 203.549 23.9284C203.601 23.9284 203.653 23.9284 203.704 23.9284C203.756 23.9284 203.808 23.9284 203.86 23.9284C203.911 23.9284 203.963 23.9284 204.015 23.9284C204.067 23.9284 204.118 23.9284 204.17 23.9284C204.222 23.9284 204.274 23.9284 204.325 23.9284C204.377 23.9284 204.429 23.9284 204.48 23.9284C204.532 23.9284 204.584 23.9284 204.636 23.9284C204.687 23.9284 204.739 23.9284 204.791 23.9284C204.843 23.9284 204.894 23.9284 204.946 23.9284C204.998 23.9284 205.05 23.9284 205.101 23.9284C205.153 23.9284 205.205 23.9284 205.256 23.9284C205.308 23.9284 205.36 23.9284 205.412 23.9284C205.463 23.9284 205.515 23.9284 205.567 23.9284C205.619 23.9284 205.67 23.9284 205.722 23.9284C205.774 23.9284 205.826 23.9284 205.877 23.9284C205.929 23.9284 205.981 23.9284 206.032 23.9284C206.084 23.9284 206.136 23.9284 206.188 23.9284C206.239 23.9284 206.291 23.9284 206.343 23.9284C206.395 23.9284 206.446 23.9284 206.498 23.9284C206.55 23.9284 206.602 23.9284 206.653 23.9284C206.705 23.9284 206.757 23.9284 206.808 23.9284C206.86 23.9284 206.912 23.9284 206.964 23.9284C207.015 23.9284 207.067 23.9284 207.119 23.9284C207.171 23.9284 207.222 23.9284 207.274 23.9284C207.326 23.9284 207.378 23.9284 207.429 23.9284C207.481 23.9284 207.533 23.9284 207.584 23.9284C207.636 23.9284 207.688 23.9284 207.74 23.9284C207.791 23.9284 207.843 23.9284 207.895 23.9284C207.947 23.9284 207.998 23.9284 208.05 23.9284C208.102 23.9284 208.154 23.9284 208.205 23.9284C208.257 23.9284 208.309 23.9284 208.36 23.9284C208.412 23.9284 208.464 23.9284 208.516 23.9284C208.567 23.9284 208.619 23.9284 208.671 23.9284C208.723 23.9284 208.774 23.9284 208.826 23.9284C208.878 23.9284 208.93 23.9284 208.981 23.9284C209.033 23.9284 209.085 23.9284 209.136 23.9284C209.188 23.9284 209.24 23.9284 209.292 23.9284C209.343 23.9284 209.395 23.9284 209.447 23.9284C209.499 23.9284 209.55 23.9284 209.602 23.9284C209.654 23.9284 209.706 23.9284 209.757 23.9284C209.809 23.9284 209.861 23.9284 209.912 23.9284C209.964 23.9284 210.016 23.9284 210.068 23.9284C210.119 23.9284 210.171 23.9284 210.223 23.9284C210.275 23.9284 210.326 23.9284 210.378 23.9284C210.43 23.9284 210.482 23.9284 210.533 23.9284C210.585 23.9284 210.637 23.9284 210.688 23.9284C210.74 23.9284 210.792 23.9284 210.844 23.9284C210.895 23.9284 210.947 23.9284 210.999 23.9284C211.051 23.9284 211.102 23.9284 211.154 23.9284C211.206 23.9284 211.258 23.9284 211.309 23.9284C211.361 23.9284 211.413 23.9284 211.465 23.9284C211.516 23.9284 211.568 23.9284 211.62 23.9284C211.671 23.9284 211.723 23.9284 211.775 23.9284C211.827 23.9284 211.878 23.9284 211.93 23.9284C211.982 23.9284 212.034 23.9284 212.085 23.9284C212.137 23.9284 212.189 23.9284 212.241 23.9284C212.292 23.9284 212.344 23.9284 212.396 23.9284C212.447 23.9284 212.499 23.9284 212.551 23.9284C212.603 23.9284 212.654 23.9284 212.706 23.9284C212.758 23.9284 212.81 23.9284 212.861 23.9284C212.913 23.9284 212.965 23.9284 213.017 23.9284C213.068 23.9284 213.12 23.9284 213.172 23.9284C213.223 23.9284 213.275 23.9284 213.327 23.9284C213.379 23.9284 213.43 23.9284 213.482 23.9284C213.534 23.9284 213.586 23.9284 213.637 23.9284C213.689 23.9284 213.741 23.9284 213.793 23.9284C213.844 23.9284 213.896 23.9284 213.948 23.9284C213.999 23.9284 214.051 23.9284 214.103 23.9284C214.155 23.9284 214.206 23.9284 214.258 23.9284C214.31 23.9284 214.362 23.9284 214.413 23.9284C214.465 23.9284 214.517 23.9284 214.569 23.9284C214.62 23.9284 214.672 23.9284 214.724 23.9284C214.775 23.9284 214.827 23.9284 214.879 23.9284C214.931 23.9284 214.982 23.9284 215.034 23.9284C215.086 23.9284 215.138 23.9284 215.189 23.9284C215.241 23.9284 215.293 23.9284 215.345 23.9284C215.396 23.9284 215.448 23.9284 215.5 23.9284C215.551 23.9284 215.603 23.9284 215.655 23.9284C215.707 23.9284 215.758 23.9284 215.81 23.9284C215.862 23.9284 215.914 23.9284 215.965 23.9284C216.017 23.9284 216.069 23.9284 216.121 23.9284C216.172 23.9284 216.224 23.9284 216.276 23.9284C216.327 23.9284 216.379 23.9284 216.431 23.9284C216.483 23.9284 216.534 23.9284 216.586 23.9284C216.638 23.9284 216.69 23.9284 216.741 23.9284C216.793 23.9284 216.845 23.9284 216.897 23.9284C216.948 23.9284 217 23.9284 217.052 23.9284C217.103 23.9284 217.155 23.9284 217.207 23.9284C217.259 23.9284 217.31 23.9284 217.362 23.9284C217.414 23.9284 217.466 23.9284 217.517 23.9284C217.569 23.9284 217.621 23.9284 217.673 23.9284C217.724 23.9284 217.776 23.9284 217.828 23.9284C217.879 23.9284 217.931 23.9284 217.983 23.9284C218.035 23.9284 218.086 23.9284 218.138 23.9284C218.19 23.9284 218.242 23.9284 218.293 23.9284C218.345 23.9284 218.397 23.9284 218.449 23.9284C218.5 23.9284 218.552 23.9284 218.604 23.9284C218.655 23.9284 218.707 23.9284 218.759 23.9284C218.811 23.9284 218.862 23.9284 218.914 23.9284C218.966 23.9284 219.018 23.9284 219.069 23.9284C219.121 23.9284 219.173 23.9284 219.225 23.9284C219.276 23.9284 219.328 23.9284 219.38 23.9284C219.432 23.9284 219.483 23.9284 219.535 23.9284C219.587 23.9284 219.638 23.9284 219.69 23.9284C219.742 23.9284 219.794 23.9284 219.845 23.9284C219.897 23.9284 219.949 23.9284 220.001 23.9284C220.052 23.9284 220.104 23.9284 220.156 23.9284C220.208 23.9284 220.259 23.9284 220.311 23.9284C220.363 23.9284 220.414 23.9284 220.466 23.9284C220.518 23.9284 220.57 23.9284 220.621 23.9284C220.673 23.9284 220.725 23.9284 220.777 23.9284C220.828 23.9284 220.88 23.9284 220.932 23.9284C220.984 23.9284 221.035 23.9284 221.087 23.9284C221.139 23.9284 221.19 23.9284 221.242 23.9284C221.294 23.9284 221.346 23.9284 221.397 23.9284C221.449 23.9284 221.501 23.9284 221.553 23.9284C221.604 23.9284 221.656 23.9284 221.708 23.9284C221.76 23.9284 221.811 23.9284 221.863 23.9284C221.915 23.9284 221.966 23.9284 222.018 23.9284C222.07 23.9284 222.122 23.9284 222.173 23.9284C222.225 23.9284 222.277 23.9284 222.329 23.9284C222.38 23.9284 222.432 23.9284 222.484 23.9284C222.536 23.9284 222.587 23.9284 222.639 23.9284C222.691 23.9284 222.742 23.9284 222.794 23.9284C222.846 23.9284 222.898 23.9284 222.949 23.9284C223.001 23.9284 223.053 23.9284 223.105 23.9284C223.156 23.9284 223.208 23.9284 223.26 23.9284C223.312 23.9284 223.363 23.9284 223.415 23.9284C223.467 23.9284 223.518 23.9284 223.57 23.9284C223.622 23.9284 223.674 23.9284 223.725 23.9284C223.777 23.9284 223.829 23.9284 223.881 23.9284C223.932 23.9284 223.984 23.9284 224.036 23.9284C224.088 23.9284 224.139 23.9284 224.191 23.9284C224.243 23.9284 224.294 23.9284 224.346 23.9284C224.398 23.9284 224.45 23.9284 224.501 23.9284C224.553 23.9284 224.605 23.9284 224.657 23.9284C224.708 23.9284 224.76 23.9284 224.812 23.9284C224.864 23.9284 224.915 23.9284 224.967 23.9284C225.019 23.9284 225.07 23.9284 225.122 23.9284C225.174 23.9284 225.226 23.9284 225.277 23.9284C225.329 23.9284 225.381 23.9284 225.433 23.9284C225.484 23.9284 225.536 23.9284 225.588 23.9284C225.64 23.9284 225.691 23.9284 225.743 23.9284C225.795 23.9284 225.846 23.9284 225.898 23.9284C225.95 23.9284 226.002 23.9284 226.053 23.9284C226.105 23.9284 226.157 23.9284 226.209 23.9284C226.26 23.9284 226.312 23.9284 226.364 23.9284C226.416 23.9284 226.467 23.9284 226.519 23.9284C226.571 23.9284 226.622 23.9284 226.674 23.9284C226.726 23.9284 226.778 23.9284 226.829 23.9284C226.881 23.9284 226.933 23.9284 226.985 23.9284C227.036 23.9284 227.088 23.9284 227.14 23.9284C227.192 23.9284 227.243 23.9284 227.295 23.9284C227.347 23.9284 227.398 23.9284 227.45 23.9284C227.502 23.9284 227.554 23.9284 227.605 23.9284C227.657 23.9284 227.709 23.9284 227.761 23.9284C227.812 23.9284 227.864 23.9284 227.916 23.9284C227.968 23.9284 228.019 23.9284 228.071 23.9284C228.123 23.9284 228.175 23.9284 228.226 23.9284C228.278 23.9284 228.33 23.9284 228.381 23.9284C228.433 23.9284 228.485 23.9284 228.537 23.9284C228.588 23.9284 228.64 23.9284 228.692 23.9284C228.744 23.9284 228.795 23.9284 228.847 23.9284C228.899 23.9284 228.951 23.9284 229.002 23.9284C229.054 23.9284 229.106 23.9284 229.157 23.9284C229.209 23.9284 229.261 23.9284 229.313 23.9284C229.364 23.9284 229.416 23.9284 229.468 23.9284C229.52 23.9284 229.571 23.9284 229.623 23.9284C229.675 23.9284 229.727 23.9284 229.778 23.9284C229.83 23.9284 229.882 23.9284 229.933 23.9284C229.985 23.9284 230.037 23.9284 230.089 23.9284C230.14 23.9284 230.192 23.9284 230.244 23.9284C230.296 23.9284 230.347 23.9284 230.399 23.9284C230.451 23.9284 230.503 23.9284 230.554 23.9284C230.606 23.9284 230.658 23.9284 230.709 23.9284C230.761 23.9284 230.813 23.9284 230.865 23.9284C230.916 23.9284 230.968 23.9284 231.02 23.9284C231.072 23.9284 231.123 23.9284 231.175 23.9284C231.227 23.9284 231.279 23.9284 231.33 23.9284C231.382 23.9284 231.434 23.9284 231.485 23.9284C231.537 23.9284 231.589 23.9284 231.641 23.9284C231.692 23.9284 231.744 23.9284 231.796 23.9284C231.848 23.9284 231.899 23.9284 231.951 23.9284C232.003 23.9284 232.055 23.9284 232.106 23.9284C232.158 23.9284 232.21 23.9284 232.261 23.9284C232.313 23.9284 232.365 23.9284 232.417 23.9284C232.468 23.9284 232.52 23.9284 232.572 23.9284C232.624 23.9284 232.675 23.9284 232.727 23.9284C232.779 23.9284 232.831 23.9284 232.882 23.9284C232.934 23.9284 232.986 23.9284 233.037 23.9284C233.089 23.9284 233.141 23.9284 233.193 23.9284C233.244 23.9284 233.296 23.9284 233.348 23.9284C233.4 23.9284 233.451 23.9284 233.503 23.9284C233.555 23.9284 233.607 23.9284 233.658 23.9284C233.71 23.9284 233.762 23.9284 233.813 23.9284C233.865 23.9284 233.917 23.9284 233.969 23.9284C234.02 23.9284 234.072 23.9284 234.124 23.9284C234.176 23.9284 234.227 23.9284 234.279 23.9284C234.331 23.9284 234.383 23.9284 234.434 23.9284C234.486 23.9284 234.538 23.9284 234.589 23.9284C234.641 23.9284 234.693 23.9284 234.745 23.9284C234.796 23.9284 234.848 23.9284 234.9 23.9284C234.952 23.9284 235.003 23.9284 235.055 23.9284C235.107 23.9284 235.159 23.9284 235.21 23.9284C235.262 23.9284 235.314 23.9284 235.366 23.9284C235.417 23.9284 235.469 23.9284 235.521 23.9284C235.572 23.9284 235.624 23.9284 235.676 23.9284C235.728 23.9284 235.779 23.9284 235.831 23.9284C235.883 23.9284 235.935 23.9284 235.986 23.9284C236.038 23.9284 236.09 23.9284 236.142 23.9284C236.193 23.9284 236.245 23.9284 236.297 23.9284C236.348 23.9284 236.4 23.9284 236.452 23.9284C236.504 23.9284 236.555 23.9284 236.607 23.9284C236.659 23.9284 236.711 23.9284 236.762 23.9284C236.814 23.9284 236.866 23.9284 236.918 23.9284C236.969 23.9284 237.021 23.9284 237.073 23.9284C237.124 23.9284 237.176 23.9284 237.228 23.9284C237.28 23.9284 237.331 23.9284 237.383 23.9284C237.435 23.9284 237.487 23.9284 237.538 23.9284C237.59 23.9284 237.642 23.9284 237.694 23.9284C237.745 23.9284 237.797 23.9284 237.849 23.9284C237.9 23.9284 237.952 23.9284 238.004 23.9284C238.056 23.9284 238.107 23.9284 238.159 23.9284C238.211 23.9284 238.263 23.9284 238.314 23.9284C238.366 23.9284 238.418 23.9284 238.47 23.9284C238.521 23.9284 238.573 23.9284 238.625 23.9284V20.9284C238.573 20.9284 238.521 20.9284 238.47 20.9284C238.418 20.9284 238.366 20.9284 238.314 20.9284C238.263 20.9284 238.211 20.9284 238.159 20.9284C238.107 20.9284 238.056 20.9284 238.004 20.9284C237.952 20.9284 237.9 20.9284 237.849 20.9284C237.797 20.9284 237.745 20.9284 237.694 20.9284C237.642 20.9284 237.59 20.9284 237.538 20.9284C237.487 20.9284 237.435 20.9284 237.383 20.9284C237.331 20.9284 237.28 20.9284 237.228 20.9284C237.176 20.9284 237.124 20.9284 237.073 20.9284C237.021 20.9284 236.969 20.9284 236.918 20.9284C236.866 20.9284 236.814 20.9284 236.762 20.9284C236.711 20.9284 236.659 20.9284 236.607 20.9284C236.555 20.9284 236.504 20.9284 236.452 20.9284C236.4 20.9284 236.348 20.9284 236.297 20.9284C236.245 20.9284 236.193 20.9284 236.142 20.9284C236.09 20.9284 236.038 20.9284 235.986 20.9284C235.935 20.9284 235.883 20.9284 235.831 20.9284C235.779 20.9284 235.728 20.9284 235.676 20.9284C235.624 20.9284 235.572 20.9284 235.521 20.9284C235.469 20.9284 235.417 20.9284 235.366 20.9284C235.314 20.9284 235.262 20.9284 235.21 20.9284C235.159 20.9284 235.107 20.9284 235.055 20.9284C235.003 20.9284 234.952 20.9284 234.9 20.9284C234.848 20.9284 234.796 20.9284 234.745 20.9284C234.693 20.9284 234.641 20.9284 234.589 20.9284C234.538 20.9284 234.486 20.9284 234.434 20.9284C234.383 20.9284 234.331 20.9284 234.279 20.9284C234.227 20.9284 234.176 20.9284 234.124 20.9284C234.072 20.9284 234.02 20.9284 233.969 20.9284C233.917 20.9284 233.865 20.9284 233.813 20.9284C233.762 20.9284 233.71 20.9284 233.658 20.9284C233.607 20.9284 233.555 20.9284 233.503 20.9284C233.451 20.9284 233.4 20.9284 233.348 20.9284C233.296 20.9284 233.244 20.9284 233.193 20.9284C233.141 20.9284 233.089 20.9284 233.037 20.9284C232.986 20.9284 232.934 20.9284 232.882 20.9284C232.831 20.9284 232.779 20.9284 232.727 20.9284C232.675 20.9284 232.624 20.9284 232.572 20.9284C232.52 20.9284 232.468 20.9284 232.417 20.9284C232.365 20.9284 232.313 20.9284 232.261 20.9284C232.21 20.9284 232.158 20.9284 232.106 20.9284C232.055 20.9284 232.003 20.9284 231.951 20.9284C231.899 20.9284 231.848 20.9284 231.796 20.9284C231.744 20.9284 231.692 20.9284 231.641 20.9284C231.589 20.9284 231.537 20.9284 231.485 20.9284C231.434 20.9284 231.382 20.9284 231.33 20.9284C231.279 20.9284 231.227 20.9284 231.175 20.9284C231.123 20.9284 231.072 20.9284 231.02 20.9284C230.968 20.9284 230.916 20.9284 230.865 20.9284C230.813 20.9284 230.761 20.9284 230.709 20.9284C230.658 20.9284 230.606 20.9284 230.554 20.9284C230.503 20.9284 230.451 20.9284 230.399 20.9284C230.347 20.9284 230.296 20.9284 230.244 20.9284C230.192 20.9284 230.14 20.9284 230.089 20.9284C230.037 20.9284 229.985 20.9284 229.933 20.9284C229.882 20.9284 229.83 20.9284 229.778 20.9284C229.727 20.9284 229.675 20.9284 229.623 20.9284C229.571 20.9284 229.52 20.9284 229.468 20.9284C229.416 20.9284 229.364 20.9284 229.313 20.9284C229.261 20.9284 229.209 20.9284 229.157 20.9284C229.106 20.9284 229.054 20.9284 229.002 20.9284C228.951 20.9284 228.899 20.9284 228.847 20.9284C228.795 20.9284 228.744 20.9284 228.692 20.9284C228.64 20.9284 228.588 20.9284 228.537 20.9284C228.485 20.9284 228.433 20.9284 228.381 20.9284C228.33 20.9284 228.278 20.9284 228.226 20.9284C228.175 20.9284 228.123 20.9284 228.071 20.9284C228.019 20.9284 227.968 20.9284 227.916 20.9284C227.864 20.9284 227.812 20.9284 227.761 20.9284C227.709 20.9284 227.657 20.9284 227.605 20.9284C227.554 20.9284 227.502 20.9284 227.45 20.9284C227.398 20.9284 227.347 20.9284 227.295 20.9284C227.243 20.9284 227.192 20.9284 227.14 20.9284C227.088 20.9284 227.036 20.9284 226.985 20.9284C226.933 20.9284 226.881 20.9284 226.829 20.9284C226.778 20.9284 226.726 20.9284 226.674 20.9284C226.622 20.9284 226.571 20.9284 226.519 20.9284C226.467 20.9284 226.416 20.9284 226.364 20.9284C226.312 20.9284 226.26 20.9284 226.209 20.9284C226.157 20.9284 226.105 20.9284 226.053 20.9284C226.002 20.9284 225.95 20.9284 225.898 20.9284C225.846 20.9284 225.795 20.9284 225.743 20.9284C225.691 20.9284 225.64 20.9284 225.588 20.9284C225.536 20.9284 225.484 20.9284 225.433 20.9284C225.381 20.9284 225.329 20.9284 225.277 20.9284C225.226 20.9284 225.174 20.9284 225.122 20.9284C225.07 20.9284 225.019 20.9284 224.967 20.9284C224.915 20.9284 224.864 20.9284 224.812 20.9284C224.76 20.9284 224.708 20.9284 224.657 20.9284C224.605 20.9284 224.553 20.9284 224.501 20.9284C224.45 20.9284 224.398 20.9284 224.346 20.9284C224.294 20.9284 224.243 20.9284 224.191 20.9284C224.139 20.9284 224.088 20.9284 224.036 20.9284C223.984 20.9284 223.932 20.9284 223.881 20.9284C223.829 20.9284 223.777 20.9284 223.725 20.9284C223.674 20.9284 223.622 20.9284 223.57 20.9284C223.518 20.9284 223.467 20.9284 223.415 20.9284C223.363 20.9284 223.312 20.9284 223.26 20.9284C223.208 20.9284 223.156 20.9284 223.105 20.9284C223.053 20.9284 223.001 20.9284 222.949 20.9284C222.898 20.9284 222.846 20.9284 222.794 20.9284C222.742 20.9284 222.691 20.9284 222.639 20.9284C222.587 20.9284 222.536 20.9284 222.484 20.9284C222.432 20.9284 222.38 20.9284 222.329 20.9284C222.277 20.9284 222.225 20.9284 222.173 20.9284C222.122 20.9284 222.07 20.9284 222.018 20.9284C221.966 20.9284 221.915 20.9284 221.863 20.9284C221.811 20.9284 221.76 20.9284 221.708 20.9284C221.656 20.9284 221.604 20.9284 221.553 20.9284C221.501 20.9284 221.449 20.9284 221.397 20.9284C221.346 20.9284 221.294 20.9284 221.242 20.9284C221.19 20.9284 221.139 20.9284 221.087 20.9284C221.035 20.9284 220.984 20.9284 220.932 20.9284C220.88 20.9284 220.828 20.9284 220.777 20.9284C220.725 20.9284 220.673 20.9284 220.621 20.9284C220.57 20.9284 220.518 20.9284 220.466 20.9284C220.414 20.9284 220.363 20.9284 220.311 20.9284C220.259 20.9284 220.208 20.9284 220.156 20.9284C220.104 20.9284 220.052 20.9284 220.001 20.9284C219.949 20.9284 219.897 20.9284 219.845 20.9284C219.794 20.9284 219.742 20.9284 219.69 20.9284C219.638 20.9284 219.587 20.9284 219.535 20.9284C219.483 20.9284 219.432 20.9284 219.38 20.9284C219.328 20.9284 219.276 20.9284 219.225 20.9284C219.173 20.9284 219.121 20.9284 219.069 20.9284C219.018 20.9284 218.966 20.9284 218.914 20.9284C218.862 20.9284 218.811 20.9284 218.759 20.9284C218.707 20.9284 218.655 20.9284 218.604 20.9284C218.552 20.9284 218.5 20.9284 218.449 20.9284C218.397 20.9284 218.345 20.9284 218.293 20.9284C218.242 20.9284 218.19 20.9284 218.138 20.9284C218.086 20.9284 218.035 20.9284 217.983 20.9284C217.931 20.9284 217.879 20.9284 217.828 20.9284C217.776 20.9284 217.724 20.9284 217.673 20.9284C217.621 20.9284 217.569 20.9284 217.517 20.9284C217.466 20.9284 217.414 20.9284 217.362 20.9284C217.31 20.9284 217.259 20.9284 217.207 20.9284C217.155 20.9284 217.103 20.9284 217.052 20.9284C217 20.9284 216.948 20.9284 216.897 20.9284C216.845 20.9284 216.793 20.9284 216.741 20.9284C216.69 20.9284 216.638 20.9284 216.586 20.9284C216.534 20.9284 216.483 20.9284 216.431 20.9284C216.379 20.9284 216.327 20.9284 216.276 20.9284C216.224 20.9284 216.172 20.9284 216.121 20.9284C216.069 20.9284 216.017 20.9284 215.965 20.9284C215.914 20.9284 215.862 20.9284 215.81 20.9284C215.758 20.9284 215.707 20.9284 215.655 20.9284C215.603 20.9284 215.551 20.9284 215.5 20.9284C215.448 20.9284 215.396 20.9284 215.345 20.9284C215.293 20.9284 215.241 20.9284 215.189 20.9284C215.138 20.9284 215.086 20.9284 215.034 20.9284C214.982 20.9284 214.931 20.9284 214.879 20.9284C214.827 20.9284 214.775 20.9284 214.724 20.9284C214.672 20.9284 214.62 20.9284 214.569 20.9284C214.517 20.9284 214.465 20.9284 214.413 20.9284C214.362 20.9284 214.31 20.9284 214.258 20.9284C214.206 20.9284 214.155 20.9284 214.103 20.9284C214.051 20.9284 213.999 20.9284 213.948 20.9284C213.896 20.9284 213.844 20.9284 213.793 20.9284C213.741 20.9284 213.689 20.9284 213.637 20.9284C213.586 20.9284 213.534 20.9284 213.482 20.9284C213.43 20.9284 213.379 20.9284 213.327 20.9284C213.275 20.9284 213.223 20.9284 213.172 20.9284C213.12 20.9284 213.068 20.9284 213.017 20.9284C212.965 20.9284 212.913 20.9284 212.861 20.9284C212.81 20.9284 212.758 20.9284 212.706 20.9284C212.654 20.9284 212.603 20.9284 212.551 20.9284C212.499 20.9284 212.447 20.9284 212.396 20.9284C212.344 20.9284 212.292 20.9284 212.241 20.9284C212.189 20.9284 212.137 20.9284 212.085 20.9284C212.034 20.9284 211.982 20.9284 211.93 20.9284C211.878 20.9284 211.827 20.9284 211.775 20.9284C211.723 20.9284 211.671 20.9284 211.62 20.9284C211.568 20.9284 211.516 20.9284 211.465 20.9284C211.413 20.9284 211.361 20.9284 211.309 20.9284C211.258 20.9284 211.206 20.9284 211.154 20.9284C211.102 20.9284 211.051 20.9284 210.999 20.9284C210.947 20.9284 210.895 20.9284 210.844 20.9284C210.792 20.9284 210.74 20.9284 210.688 20.9284C210.637 20.9284 210.585 20.9284 210.533 20.9284C210.482 20.9284 210.43 20.9284 210.378 20.9284C210.326 20.9284 210.275 20.9284 210.223 20.9284C210.171 20.9284 210.119 20.9284 210.068 20.9284C210.016 20.9284 209.964 20.9284 209.912 20.9284C209.861 20.9284 209.809 20.9284 209.757 20.9284C209.706 20.9284 209.654 20.9284 209.602 20.9284C209.55 20.9284 209.499 20.9284 209.447 20.9284C209.395 20.9284 209.343 20.9284 209.292 20.9284C209.24 20.9284 209.188 20.9284 209.136 20.9284C209.085 20.9284 209.033 20.9284 208.981 20.9284C208.93 20.9284 208.878 20.9284 208.826 20.9284C208.774 20.9284 208.723 20.9284 208.671 20.9284C208.619 20.9284 208.567 20.9284 208.516 20.9284C208.464 20.9284 208.412 20.9284 208.36 20.9284C208.309 20.9284 208.257 20.9284 208.205 20.9284C208.154 20.9284 208.102 20.9284 208.05 20.9284C207.998 20.9284 207.947 20.9284 207.895 20.9284C207.843 20.9284 207.791 20.9284 207.74 20.9284C207.688 20.9284 207.636 20.9284 207.584 20.9284C207.533 20.9284 207.481 20.9284 207.429 20.9284C207.378 20.9284 207.326 20.9284 207.274 20.9284C207.222 20.9284 207.171 20.9284 207.119 20.9284C207.067 20.9284 207.015 20.9284 206.964 20.9284C206.912 20.9284 206.86 20.9284 206.808 20.9284C206.757 20.9284 206.705 20.9284 206.653 20.9284C206.602 20.9284 206.55 20.9284 206.498 20.9284C206.446 20.9284 206.395 20.9284 206.343 20.9284C206.291 20.9284 206.239 20.9284 206.188 20.9284C206.136 20.9284 206.084 20.9284 206.032 20.9284C205.981 20.9284 205.929 20.9284 205.877 20.9284C205.826 20.9284 205.774 20.9284 205.722 20.9284C205.67 20.9284 205.619 20.9284 205.567 20.9284C205.515 20.9284 205.463 20.9284 205.412 20.9284C205.36 20.9284 205.308 20.9284 205.256 20.9284C205.205 20.9284 205.153 20.9284 205.101 20.9284C205.05 20.9284 204.998 20.9284 204.946 20.9284C204.894 20.9284 204.843 20.9284 204.791 20.9284C204.739 20.9284 204.687 20.9284 204.636 20.9284C204.584 20.9284 204.532 20.9284 204.48 20.9284C204.429 20.9284 204.377 20.9284 204.325 20.9284C204.274 20.9284 204.222 20.9284 204.17 20.9284C204.118 20.9284 204.067 20.9284 204.015 20.9284C203.963 20.9284 203.911 20.9284 203.86 20.9284C203.808 20.9284 203.756 20.9284 203.704 20.9284C203.653 20.9284 203.601 20.9284 203.549 20.9284C203.498 20.9284 203.446 20.9284 203.394 20.9284C203.342 20.9284 203.291 20.9284 203.239 20.9284C203.187 20.9284 203.135 20.9284 203.084 20.9284C203.032 20.9284 202.98 20.9284 202.928 20.9284C202.877 20.9284 202.825 20.9284 202.773 20.9284C202.721 20.9284 202.67 20.9284 202.618 20.9284C202.566 20.9284 202.515 20.9284 202.463 20.9284C202.411 20.9284 202.359 20.9284 202.308 20.9284C202.256 20.9284 202.204 20.9284 202.152 20.9284C202.101 20.9284 202.049 20.9284 201.997 20.9284C201.945 20.9284 201.894 20.9284 201.842 20.9284C201.79 20.9284 201.739 20.9284 201.687 20.9284C201.635 20.9284 201.583 20.9284 201.532 20.9284C201.48 20.9284 201.428 20.9284 201.376 20.9284C201.325 20.9284 201.273 20.9284 201.221 20.9284C201.169 20.9284 201.118 20.9284 201.066 20.9284C201.014 20.9284 200.963 20.9284 200.911 20.9284C200.859 20.9284 200.807 20.9284 200.756 20.9284C200.704 20.9284 200.652 20.9284 200.6 20.9284C200.549 20.9284 200.497 20.9284 200.445 20.9284C200.393 20.9284 200.342 20.9284 200.29 20.9284C200.238 20.9284 200.187 20.9284 200.135 20.9284C200.083 20.9284 200.031 20.9284 199.98 20.9284C199.928 20.9284 199.876 20.9284 199.824 20.9284C199.773 20.9284 199.721 20.9284 199.669 20.9284C199.617 20.9284 199.566 20.9284 199.514 20.9284C199.462 20.9284 199.411 20.9284 199.359 20.9284C199.307 20.9284 199.255 20.9284 199.204 20.9284C199.152 20.9284 199.1 20.9284 199.048 20.9284C198.997 20.9284 198.945 20.9284 198.893 20.9284C198.841 20.9284 198.79 20.9284 198.738 20.9284C198.686 20.9284 198.635 20.9284 198.583 20.9284C198.531 20.9284 198.479 20.9284 198.428 20.9284C198.376 20.9284 198.324 20.9284 198.272 20.9284C198.221 20.9284 198.169 20.9284 198.117 20.9284C198.065 20.9284 198.014 20.9284 197.962 20.9284C197.91 20.9284 197.859 20.9284 197.807 20.9284C197.755 20.9284 197.703 20.9284 197.652 20.9284C197.6 20.9284 197.548 20.9284 197.496 20.9284C197.445 20.9284 197.393 20.9284 197.341 20.9284C197.289 20.9284 197.238 20.9284 197.186 20.9284C197.134 20.9284 197.083 20.9284 197.031 20.9284C196.979 20.9284 196.927 20.9284 196.876 20.9284C196.824 20.9284 196.772 20.9284 196.72 20.9284C196.669 20.9284 196.617 20.9284 196.565 20.9284C196.513 20.9284 196.462 20.9284 196.41 20.9284C196.358 20.9284 196.307 20.9284 196.255 20.9284C196.203 20.9284 196.151 20.9284 196.1 20.9284C196.048 20.9284 195.996 20.9284 195.944 20.9284C195.893 20.9284 195.841 20.9284 195.789 20.9284C195.737 20.9284 195.686 20.9284 195.634 20.9284C195.582 20.9284 195.531 20.9284 195.479 20.9284C195.427 20.9284 195.375 20.9284 195.324 20.9284C195.272 20.9284 195.22 20.9284 195.168 20.9284C195.117 20.9284 195.065 20.9284 195.013 20.9284C194.961 20.9284 194.91 20.9284 194.858 20.9284C194.806 20.9284 194.755 20.9284 194.703 20.9284C194.651 20.9284 194.599 20.9284 194.548 20.9284C194.496 20.9284 194.444 20.9284 194.392 20.9284C194.341 20.9284 194.289 20.9284 194.237 20.9284C194.185 20.9284 194.134 20.9284 194.082 20.9284C194.03 20.9284 193.978 20.9284 193.927 20.9284C193.875 20.9284 193.823 20.9284 193.772 20.9284C193.72 20.9284 193.668 20.9284 193.616 20.9284C193.565 20.9284 193.513 20.9284 193.461 20.9284C193.409 20.9284 193.358 20.9284 193.306 20.9284C193.254 20.9284 193.202 20.9284 193.151 20.9284C193.099 20.9284 193.047 20.9284 192.996 20.9284C192.944 20.9284 192.892 20.9284 192.84 20.9284C192.789 20.9284 192.737 20.9284 192.685 20.9284C192.633 20.9284 192.582 20.9284 192.53 20.9284C192.478 20.9284 192.426 20.9284 192.375 20.9284C192.323 20.9284 192.271 20.9284 192.22 20.9284C192.168 20.9284 192.116 20.9284 192.064 20.9284C192.013 20.9284 191.961 20.9284 191.909 20.9284C191.857 20.9284 191.806 20.9284 191.754 20.9284C191.702 20.9284 191.65 20.9284 191.599 20.9284C191.547 20.9284 191.495 20.9284 191.444 20.9284C191.392 20.9284 191.34 20.9284 191.288 20.9284C191.237 20.9284 191.185 20.9284 191.133 20.9284C191.081 20.9284 191.03 20.9284 190.978 20.9284C190.926 20.9284 190.874 20.9284 190.823 20.9284C190.771 20.9284 190.719 20.9284 190.668 20.9284C190.616 20.9284 190.564 20.9284 190.512 20.9284C190.461 20.9284 190.409 20.9284 190.357 20.9284C190.305 20.9284 190.254 20.9284 190.202 20.9284C190.15 20.9284 190.098 20.9284 190.047 20.9284C189.995 20.9284 189.943 20.9284 189.892 20.9284C189.84 20.9284 189.788 20.9284 189.736 20.9284C189.685 20.9284 189.633 20.9284 189.581 20.9284C189.529 20.9284 189.478 20.9284 189.426 20.9284C189.374 20.9284 189.322 20.9284 189.271 20.9284C189.219 20.9284 189.167 20.9284 189.116 20.9284C189.064 20.9284 189.012 20.9284 188.96 20.9284C188.909 20.9284 188.857 20.9284 188.805 20.9284C188.753 20.9284 188.702 20.9284 188.65 20.9284C188.598 20.9284 188.546 20.9284 188.495 20.9284C188.443 20.9284 188.391 20.9284 188.34 20.9284C188.288 20.9284 188.236 20.9284 188.184 20.9284C188.133 20.9284 188.081 20.9284 188.029 20.9284C187.977 20.9284 187.926 20.9284 187.874 20.9284C187.822 20.9284 187.77 20.9284 187.719 20.9284C187.667 20.9284 187.615 20.9284 187.564 20.9284C187.512 20.9284 187.46 20.9284 187.408 20.9284C187.357 20.9284 187.305 20.9284 187.253 20.9284C187.201 20.9284 187.15 20.9284 187.098 20.9284C187.046 20.9284 186.994 20.9284 186.943 20.9284C186.891 20.9284 186.839 20.9284 186.788 20.9284C186.736 20.9284 186.684 20.9284 186.632 20.9284C186.581 20.9284 186.529 20.9284 186.477 20.9284C186.425 20.9284 186.374 20.9284 186.322 20.9284C186.27 20.9284 186.218 20.9284 186.167 20.9284C186.115 20.9284 186.063 20.9284 186.011 20.9284C185.96 20.9284 185.908 20.9284 185.856 20.9284C185.805 20.9284 185.753 20.9284 185.701 20.9284C185.649 20.9284 185.598 20.9284 185.546 20.9284C185.494 20.9284 185.442 20.9284 185.391 20.9284C185.339 20.9284 185.287 20.9284 185.235 20.9284C185.184 20.9284 185.132 20.9284 185.08 20.9284C185.029 20.9284 184.977 20.9284 184.925 20.9284C184.873 20.9284 184.822 20.9284 184.77 20.9284C184.718 20.9284 184.666 20.9284 184.615 20.9284C184.563 20.9284 184.511 20.9284 184.459 20.9284C184.408 20.9284 184.356 20.9284 184.304 20.9284C184.253 20.9284 184.201 20.9284 184.149 20.9284C184.097 20.9284 184.046 20.9284 183.994 20.9284C183.942 20.9284 183.89 20.9284 183.839 20.9284C183.787 20.9284 183.735 20.9284 183.683 20.9284C183.632 20.9284 183.58 20.9284 183.528 20.9284C183.477 20.9284 183.425 20.9284 183.373 20.9284C183.321 20.9284 183.27 20.9284 183.218 20.9284C183.166 20.9284 183.114 20.9284 183.063 20.9284C183.011 20.9284 182.959 20.9284 182.907 20.9284C182.856 20.9284 182.804 20.9284 182.752 20.9284C182.701 20.9284 182.649 20.9284 182.597 20.9284C182.545 20.9284 182.494 20.9284 182.442 20.9284C182.39 20.9284 182.338 20.9284 182.287 20.9284C182.235 20.9284 182.183 20.9284 182.131 20.9284C182.08 20.9284 182.028 20.9284 181.976 20.9284C181.925 20.9284 181.873 20.9284 181.821 20.9284C181.769 20.9284 181.718 20.9284 181.666 20.9284C181.614 20.9284 181.562 20.9284 181.511 20.9284C181.459 20.9284 181.407 20.9284 181.355 20.9284C181.304 20.9284 181.252 20.9284 181.2 20.9284C181.149 20.9284 181.097 20.9284 181.045 20.9284C180.993 20.9284 180.942 20.9284 180.89 20.9284C180.838 20.9284 180.786 20.9284 180.735 20.9284C180.683 20.9284 180.631 20.9284 180.579 20.9284C180.528 20.9284 180.476 20.9284 180.424 20.9284C180.373 20.9284 180.321 20.9284 180.269 20.9284C180.217 20.9284 180.166 20.9284 180.114 20.9284C180.062 20.9284 180.01 20.9284 179.959 20.9284C179.907 20.9284 179.855 20.9284 179.803 20.9284C179.752 20.9284 179.7 20.9284 179.648 20.9284C179.597 20.9284 179.545 20.9284 179.493 20.9284C179.441 20.9284 179.39 20.9284 179.338 20.9284C179.286 20.9284 179.234 20.9284 179.183 20.9284C179.131 20.9284 179.079 20.9284 179.027 20.9284C178.976 20.9284 178.924 20.9284 178.872 20.9284C178.821 20.9284 178.769 20.9284 178.717 20.9284C178.665 20.9284 178.614 20.9284 178.562 20.9284C178.51 20.9284 178.458 20.9284 178.407 20.9284C178.355 20.9284 178.303 20.9284 178.251 20.9284C178.2 20.9284 178.148 20.9284 178.096 20.9284C178.044 20.9284 177.993 20.9284 177.941 20.9284C177.889 20.9284 177.838 20.9284 177.786 20.9284C177.734 20.9284 177.682 20.9284 177.631 20.9284C177.579 20.9284 177.527 20.9284 177.475 20.9284C177.424 20.9284 177.372 20.9284 177.32 20.9284C177.268 20.9284 177.217 20.9284 177.165 20.9284C177.113 20.9284 177.062 20.9284 177.01 20.9284C176.958 20.9284 176.906 20.9284 176.855 20.9284C176.803 20.9284 176.751 20.9284 176.699 20.9284C176.648 20.9284 176.596 20.9284 176.544 20.9284C176.492 20.9284 176.441 20.9284 176.389 20.9284C176.337 20.9284 176.286 20.9284 176.234 20.9284C176.182 20.9284 176.13 20.9284 176.079 20.9284C176.027 20.9284 175.975 20.9284 175.923 20.9284C175.872 20.9284 175.82 20.9284 175.768 20.9284C175.716 20.9284 175.665 20.9284 175.613 20.9284C175.561 20.9284 175.51 20.9284 175.458 20.9284C175.406 20.9284 175.354 20.9284 175.303 20.9284C175.251 20.9284 175.199 20.9284 175.147 20.9284C175.096 20.9284 175.044 20.9284 174.992 20.9284C174.94 20.9284 174.889 20.9284 174.837 20.9284C174.785 20.9284 174.734 20.9284 174.682 20.9284C174.63 20.9284 174.578 20.9284 174.527 20.9284C174.475 20.9284 174.423 20.9284 174.371 20.9284C174.32 20.9284 174.268 20.9284 174.216 20.9284C174.164 20.9284 174.113 20.9284 174.061 20.9284C174.009 20.9284 173.958 20.9284 173.906 20.9284C173.854 20.9284 173.802 20.9284 173.751 20.9284C173.699 20.9284 173.647 20.9284 173.595 20.9284C173.544 20.9284 173.492 20.9284 173.44 20.9284C173.388 20.9284 173.337 20.9284 173.285 20.9284C173.233 20.9284 173.182 20.9284 173.13 20.9284C173.078 20.9284 173.026 20.9284 172.975 20.9284C172.923 20.9284 172.871 20.9284 172.819 20.9284C172.768 20.9284 172.716 20.9284 172.664 20.9284C172.612 20.9284 172.561 20.9284 172.509 20.9284C172.457 20.9284 172.406 20.9284 172.354 20.9284C172.302 20.9284 172.25 20.9284 172.199 20.9284C172.147 20.9284 172.095 20.9284 172.043 20.9284C171.992 20.9284 171.94 20.9284 171.888 20.9284C171.836 20.9284 171.785 20.9284 171.733 20.9284C171.681 20.9284 171.63 20.9284 171.578 20.9284C171.526 20.9284 171.474 20.9284 171.423 20.9284C171.371 20.9284 171.319 20.9284 171.267 20.9284C171.216 20.9284 171.164 20.9284 171.112 20.9284C171.06 20.9284 171.009 20.9284 170.957 20.9284C170.905 20.9284 170.854 20.9284 170.802 20.9284C170.75 20.9284 170.698 20.9284 170.647 20.9284C170.595 20.9284 170.543 20.9284 170.491 20.9284C170.44 20.9284 170.388 20.9284 170.336 20.9284C170.284 20.9284 170.233 20.9284 170.181 20.9284C170.129 20.9284 170.077 20.9284 170.026 20.9284C169.974 20.9284 169.922 20.9284 169.871 20.9284C169.819 20.9284 169.767 20.9284 169.715 20.9284C169.664 20.9284 169.612 20.9284 169.56 20.9284C169.508 20.9284 169.457 20.9284 169.405 20.9284C169.353 20.9284 169.301 20.9284 169.25 20.9284C169.198 20.9284 169.146 20.9284 169.095 20.9284C169.043 20.9284 168.991 20.9284 168.939 20.9284C168.888 20.9284 168.836 20.9284 168.784 20.9284C168.732 20.9284 168.681 20.9284 168.629 20.9284C168.577 20.9284 168.525 20.9284 168.474 20.9284C168.422 20.9284 168.37 20.9284 168.319 20.9284C168.267 20.9284 168.215 20.9284 168.163 20.9284C168.112 20.9284 168.06 20.9284 168.008 20.9284C167.956 20.9284 167.905 20.9284 167.853 20.9284C167.801 20.9284 167.749 20.9284 167.698 20.9284C167.646 20.9284 167.594 20.9284 167.543 20.9284C167.491 20.9284 167.439 20.9284 167.387 20.9284C167.336 20.9284 167.284 20.9284 167.232 20.9284C167.18 20.9284 167.129 20.9284 167.077 20.9284C167.025 20.9284 166.973 20.9284 166.922 20.9284C166.87 20.9284 166.818 20.9284 166.767 20.9284C166.715 20.9284 166.663 20.9284 166.611 20.9284C166.56 20.9284 166.508 20.9284 166.456 20.9284C166.404 20.9284 166.353 20.9284 166.301 20.9284C166.249 20.9284 166.197 20.9284 166.146 20.9284C166.094 20.9284 166.042 20.9284 165.991 20.9284C165.939 20.9284 165.887 20.9284 165.835 20.9284C165.784 20.9284 165.732 20.9284 165.68 20.9284C165.628 20.9284 165.577 20.9284 165.525 20.9284C165.473 20.9284 165.421 20.9284 165.37 20.9284C165.318 20.9284 165.266 20.9284 165.215 20.9284C165.163 20.9284 165.111 20.9284 165.059 20.9284C165.008 20.9284 164.956 20.9284 164.904 20.9284C164.852 20.9284 164.801 20.9284 164.749 20.9284C164.697 20.9284 164.645 20.9284 164.594 20.9284C164.542 20.9284 164.49 20.9284 164.439 20.9284C164.387 20.9284 164.335 20.9284 164.283 20.9284C164.232 20.9284 164.18 20.9284 164.128 20.9284C164.076 20.9284 164.025 20.9284 163.973 20.9284C163.921 20.9284 163.869 20.9284 163.818 20.9284C163.766 20.9284 163.714 20.9284 163.663 20.9284C163.611 20.9284 163.559 20.9284 163.507 20.9284C163.456 20.9284 163.404 20.9284 163.352 20.9284C163.3 20.9284 163.249 20.9284 163.197 20.9284C163.145 20.9284 163.093 20.9284 163.042 20.9284C162.99 20.9284 162.938 20.9284 162.887 20.9284C162.835 20.9284 162.783 20.9284 162.731 20.9284C162.68 20.9284 162.628 20.9284 162.576 20.9284C162.524 20.9284 162.473 20.9284 162.421 20.9284C162.369 20.9284 162.317 20.9284 162.266 20.9284C162.214 20.9284 162.162 20.9284 162.111 20.9284C162.059 20.9284 162.007 20.9284 161.955 20.9284C161.904 20.9284 161.852 20.9284 161.8 20.9284C161.748 20.9284 161.697 20.9284 161.645 20.9284C161.593 20.9284 161.541 20.9284 161.49 20.9284C161.438 20.9284 161.386 20.9284 161.334 20.9284C161.283 20.9284 161.231 20.9284 161.179 20.9284C161.128 20.9284 161.076 20.9284 161.024 20.9284C160.972 20.9284 160.921 20.9284 160.869 20.9284C160.817 20.9284 160.765 20.9284 160.714 20.9284C160.662 20.9284 160.61 20.9284 160.558 20.9284C160.507 20.9284 160.455 20.9284 160.403 20.9284C160.352 20.9284 160.3 20.9284 160.248 20.9284C160.196 20.9284 160.145 20.9284 160.093 20.9284C160.041 20.9284 159.989 20.9284 159.938 20.9284C159.886 20.9284 159.834 20.9284 159.782 20.9284C159.731 20.9284 159.679 20.9284 159.627 20.9284C159.576 20.9284 159.524 20.9284 159.472 20.9284C159.42 20.9284 159.369 20.9284 159.317 20.9284C159.265 20.9284 159.213 20.9284 159.162 20.9284V23.9284Z" fill="white"/>
</svg>
